<mxfile host="app.diagrams.net" modified="2023-08-28T15:38:44.710Z" agent="Mozilla/5.0 (Macintosh; Intel Mac OS X 10.15; rv:109.0) Gecko/20100101 Firefox/116.0" etag="2bTf7vv1ys9xf9OdM1rn" version="21.6.9" type="github">
  <diagram name="Страница — 1" id="uPQEb72jBTkdvLVvMf-2">
    <mxGraphModel dx="1194" dy="698" grid="1" gridSize="10" guides="1" tooltips="1" connect="1" arrows="1" fold="1" page="1" pageScale="1" pageWidth="827" pageHeight="1169" math="0" shadow="0">
      <root>
        <mxCell id="0" />
        <mxCell id="1" parent="0" />
      </root>
    </mxGraphModel>
  </diagram>
</mxfile>
